STARTFONT 2.1
FONT -FontForge-Zen Tokyo Zoo-Book-R-Normal--18-180-72-72-P-84-ISO10646-1
SIZE 18 72 72
FONTBOUNDINGBOX 23 26 -2 -5
COMMENT "Generated by fontforge, http://fontforge.sourceforge.net"
COMMENT "Copyright 2021 The Zen Tokyo Zoo Project Authors (https://github.com/googlefonts/zen-tokyo-zoo)"
STARTPROPERTIES 39
FOUNDRY "FontForge"
FAMILY_NAME "Zen Tokyo Zoo"
WEIGHT_NAME "Book"
SLANT "R"
SETWIDTH_NAME "Normal"
ADD_STYLE_NAME ""
PIXEL_SIZE 18
POINT_SIZE 180
RESOLUTION_X 72
RESOLUTION_Y 72
SPACING "P"
AVERAGE_WIDTH 84
CHARSET_REGISTRY "ISO10646"
CHARSET_ENCODING "1"
FONTNAME_REGISTRY ""
CHARSET_COLLECTIONS "ISO10646-1"
FONT_NAME "ZenTokyoZoo-Regular"
FACE_NAME "Zen Tokyo Zoo Regular"
COPYRIGHT "Copyright 2021 The Zen Tokyo Zoo Project Authors (https://github.com/googlefonts/zen-tokyo-zoo)"
FONT_VERSION "1.002; ttfautohint (v1.8.3)"
FONT_ASCENT 14
FONT_DESCENT 4
UNDERLINE_POSITION -3
UNDERLINE_THICKNESS 1
X_HEIGHT 7
CAP_HEIGHT 15
RAW_ASCENT 800
RAW_DESCENT 200
NORM_SPACE 5
RELATIVE_WEIGHT 40
RELATIVE_SETWIDTH 50
SUPERSCRIPT_X 0
SUPERSCRIPT_Y 6
SUPERSCRIPT_SIZE 10
SUBSCRIPT_X 0
SUBSCRIPT_Y 1
SUBSCRIPT_SIZE 10
AVG_LOWERCASE_WIDTH 74
AVG_UPPERCASE_WIDTH 136
ENDPROPERTIES
CHARS 338
STARTCHAR CR
ENCODING 13
SWIDTH 600 0
DWIDTH 11 0
BBX 1 1 0 0
BITMAP
00
ENDCHAR
STARTCHAR space
ENCODING 32
SWIDTH 280 0
DWIDTH 5 0
BBX 1 1 0 0
BITMAP
00
ENDCHAR
STARTCHAR exclam
ENCODING 33
SWIDTH 196 0
DWIDTH 4 0
BBX 2 8 1 0
BITMAP
C0
C0
C0
C0
C0
C0
C0
C0
ENDCHAR
STARTCHAR quotedbl
ENCODING 34
SWIDTH 302 0
DWIDTH 5 0
BBX 5 3 0 5
BITMAP
D8
D8
D8
ENDCHAR
STARTCHAR numbersign
ENCODING 35
SWIDTH 513 0
DWIDTH 9 0
BBX 7 8 1 0
BITMAP
3A
DE
EE
60
FE
EE
0C
74
ENDCHAR
STARTCHAR dollar
ENCODING 36
SWIDTH 379 0
DWIDTH 7 0
BBX 5 10 1 -1
BITMAP
20
70
A8
F8
F0
68
18
F8
F8
20
ENDCHAR
STARTCHAR percent
ENCODING 37
SWIDTH 493 0
DWIDTH 9 0
BBX 8 8 0 0
BITMAP
77
B6
BC
6C
1B
2F
37
67
ENDCHAR
STARTCHAR ampersand
ENCODING 38
SWIDTH 487 0
DWIDTH 9 0
BBX 7 8 1 0
BITMAP
38
54
74
58
B6
DA
F4
7E
ENDCHAR
STARTCHAR quotesingle
ENCODING 39
SWIDTH 146 0
DWIDTH 3 0
BBX 2 3 0 5
BITMAP
C0
C0
C0
ENDCHAR
STARTCHAR parenleft
ENCODING 40
SWIDTH 210 0
DWIDTH 4 0
BBX 2 9 1 0
BITMAP
C0
C0
80
80
80
80
80
C0
C0
ENDCHAR
STARTCHAR parenright
ENCODING 41
SWIDTH 210 0
DWIDTH 4 0
BBX 3 9 0 0
BITMAP
A0
60
60
60
60
60
60
60
A0
ENDCHAR
STARTCHAR asterisk
ENCODING 42
SWIDTH 358 0
DWIDTH 6 0
BBX 5 5 1 3
BITMAP
20
90
98
F0
50
ENDCHAR
STARTCHAR plus
ENCODING 43
SWIDTH 394 0
DWIDTH 7 0
BBX 5 6 1 1
BITMAP
50
50
D8
D8
50
50
ENDCHAR
STARTCHAR comma
ENCODING 44
SWIDTH 216 0
DWIDTH 4 0
BBX 2 3 1 -1
BITMAP
C0
C0
C0
ENDCHAR
STARTCHAR hyphen
ENCODING 45
SWIDTH 326 0
DWIDTH 6 0
BBX 4 2 1 3
BITMAP
F0
F0
ENDCHAR
STARTCHAR period
ENCODING 46
SWIDTH 176 0
DWIDTH 3 0
BBX 1 2 1 0
BITMAP
80
80
ENDCHAR
STARTCHAR slash
ENCODING 47
SWIDTH 298 0
DWIDTH 5 0
BBX 4 8 1 0
BITMAP
30
50
60
60
A0
C0
C0
C0
ENDCHAR
STARTCHAR zero
ENCODING 48
SWIDTH 306 0
DWIDTH 6 0
BBX 4 8 1 0
BITMAP
E0
F0
B0
B0
B0
B0
D0
E0
ENDCHAR
STARTCHAR one
ENCODING 49
SWIDTH 306 0
DWIDTH 6 0
BBX 4 8 1 0
BITMAP
B0
B0
30
30
30
30
30
30
ENDCHAR
STARTCHAR two
ENCODING 50
SWIDTH 299 0
DWIDTH 5 0
BBX 4 8 1 0
BITMAP
E0
D0
30
50
A0
40
F0
F0
ENDCHAR
STARTCHAR three
ENCODING 51
SWIDTH 324 0
DWIDTH 6 0
BBX 4 8 1 0
BITMAP
E0
F0
30
20
30
30
F0
E0
ENDCHAR
STARTCHAR four
ENCODING 52
SWIDTH 339 0
DWIDTH 6 0
BBX 5 8 1 0
BITMAP
50
60
A0
C0
28
E8
E8
28
ENDCHAR
STARTCHAR five
ENCODING 53
SWIDTH 363 0
DWIDTH 7 0
BBX 5 8 1 0
BITMAP
F0
F0
C0
D0
C8
58
A8
70
ENDCHAR
STARTCHAR six
ENCODING 54
SWIDTH 306 0
DWIDTH 6 0
BBX 4 8 1 0
BITMAP
E0
F0
80
A0
90
B0
D0
E0
ENDCHAR
STARTCHAR seven
ENCODING 55
SWIDTH 298 0
DWIDTH 5 0
BBX 4 8 1 0
BITMAP
F0
F0
00
50
60
60
60
A0
ENDCHAR
STARTCHAR eight
ENCODING 56
SWIDTH 306 0
DWIDTH 6 0
BBX 4 8 1 0
BITMAP
E0
F0
B0
F0
50
B0
D0
E0
ENDCHAR
STARTCHAR nine
ENCODING 57
SWIDTH 306 0
DWIDTH 6 0
BBX 4 8 1 0
BITMAP
E0
F0
B0
F0
70
30
D0
E0
ENDCHAR
STARTCHAR colon
ENCODING 58
SWIDTH 176 0
DWIDTH 3 0
BBX 1 5 1 0
BITMAP
80
80
00
80
80
ENDCHAR
STARTCHAR semicolon
ENCODING 59
SWIDTH 217 0
DWIDTH 4 0
BBX 2 6 1 -1
BITMAP
C0
C0
00
C0
C0
C0
ENDCHAR
STARTCHAR less
ENCODING 60
SWIDTH 450 0
DWIDTH 8 0
BBX 6 7 1 0
BITMAP
0C
14
68
B0
68
1C
04
ENDCHAR
STARTCHAR equal
ENCODING 61
SWIDTH 344 0
DWIDTH 6 0
BBX 4 5 1 1
BITMAP
F0
F0
00
F0
F0
ENDCHAR
STARTCHAR greater
ENCODING 62
SWIDTH 450 0
DWIDTH 8 0
BBX 6 8 1 0
BITMAP
80
40
B0
68
3C
50
E0
80
ENDCHAR
STARTCHAR question
ENCODING 63
SWIDTH 346 0
DWIDTH 6 0
BBX 4 8 1 0
BITMAP
70
F0
30
30
60
60
00
60
ENDCHAR
STARTCHAR at
ENCODING 64
SWIDTH 490 0
DWIDTH 9 0
BBX 7 8 1 0
BITMAP
78
C6
BA
AA
DA
F4
B8
7C
ENDCHAR
STARTCHAR A
ENCODING 65
SWIDTH 798 0
DWIDTH 14 0
BBX 14 16 0 0
BITMAP
0680
0740
0740
0DC0
0EC0
0F60
16E0
1CE0
1CD0
2C70
3B70
3FE8
5838
77B8
7034
B01C
ENDCHAR
STARTCHAR B
ENCODING 66
SWIDTH 784 0
DWIDTH 14 0
BBX 13 16 1 0
BITMAP
FFC0
FFA0
E050
FFB0
E070
E070
FFD0
FF90
E030
FFE8
E068
E058
E068
FFB0
FFE0
FFC0
ENDCHAR
STARTCHAR C
ENCODING 67
SWIDTH 776 0
DWIDTH 14 0
BBX 12 16 1 0
BITMAP
0FC0
37F0
5FB0
6860
D000
E000
A000
A000
A000
A000
E000
D000
6860
5FB0
37F0
0FC0
ENDCHAR
STARTCHAR D
ENCODING 68
SWIDTH 806 0
DWIDTH 15 0
BBX 13 16 1 0
BITMAP
FF80
FF40
E0A0
FF50
E0B0
E058
E058
E038
E038
E038
E058
E070
E0D0
FFA0
FF40
FF80
ENDCHAR
STARTCHAR E
ENCODING 69
SWIDTH 677 0
DWIDTH 12 0
BBX 11 16 1 0
BITMAP
FFE0
FFE0
E000
FFE0
E000
E000
FFC0
E000
FFC0
FFC0
E000
E000
E000
FFE0
FFE0
FFE0
ENDCHAR
STARTCHAR F
ENCODING 70
SWIDTH 677 0
DWIDTH 12 0
BBX 11 16 1 0
BITMAP
FFE0
FFE0
E000
FFE0
E000
E000
FFC0
E000
FFC0
FFC0
E000
E000
E000
E000
E000
E000
ENDCHAR
STARTCHAR G
ENCODING 71
SWIDTH 872 0
DWIDTH 16 0
BBX 14 16 1 0
BITMAP
0FC0
37F0
5FA8
6854
D030
E000
A000
A1FC
A1FC
A000
E1FC
D02C
6874
5FA8
37F0
0FC0
ENDCHAR
STARTCHAR H
ENCODING 72
SWIDTH 781 0
DWIDTH 14 0
BBX 12 16 1 0
BITMAP
E070
E070
E070
E070
E070
E070
FFF0
E070
FFF0
FFF0
E070
E070
E070
E070
E070
E070
ENDCHAR
STARTCHAR I
ENCODING 73
SWIDTH 262 0
DWIDTH 5 0
BBX 3 16 1 0
BITMAP
E0
E0
E0
E0
E0
E0
E0
E0
E0
E0
E0
E0
E0
E0
E0
E0
ENDCHAR
STARTCHAR J
ENCODING 74
SWIDTH 674 0
DWIDTH 12 0
BBX 11 16 0 0
BITMAP
00E0
00E0
00E0
00E0
00E0
00E0
00E0
00E0
00E0
00E0
D0E0
D0E0
7160
5EA0
2F40
1F80
ENDCHAR
STARTCHAR K
ENCODING 75
SWIDTH 739 0
DWIDTH 13 0
BBX 12 16 1 0
BITMAP
E0D0
E160
E1C0
E340
E580
E300
ED00
EE00
FA00
ED00
EB00
E580
E340
E2C0
E160
E0F0
ENDCHAR
STARTCHAR L
ENCODING 76
SWIDTH 604 0
DWIDTH 11 0
BBX 10 16 1 0
BITMAP
E000
E000
E000
E000
E000
E000
E000
E000
E000
E000
E000
E000
E000
FFC0
FFC0
FFC0
ENDCHAR
STARTCHAR M
ENCODING 77
SWIDTH 909 0
DWIDTH 16 0
BBX 14 16 1 0
BITMAP
E014
F034
F034
E874
F4B4
EAD4
F774
EDB4
EAD4
E594
E314
E214
E114
E014
E014
E014
ENDCHAR
STARTCHAR N
ENCODING 78
SWIDTH 796 0
DWIDTH 14 0
BBX 12 16 1 0
BITMAP
E070
F070
E870
F870
F470
EC70
F670
ED70
EB70
E5F0
E3F0
E2F0
E1F0
E0F0
E0F0
E070
ENDCHAR
STARTCHAR O
ENCODING 79
SWIDTH 894 0
DWIDTH 16 0
BBX 15 16 1 0
BITMAP
0FC0
37F0
5FA8
6854
D02C
E01C
A01A
A016
A016
A01A
E01C
D02C
6854
5FA8
37F0
0FC0
ENDCHAR
STARTCHAR P
ENCODING 80
SWIDTH 743 0
DWIDTH 13 0
BBX 12 16 1 0
BITMAP
FFC0
FFA0
E050
FFB0
E070
E070
FFD0
FF90
E020
FFC0
E000
E000
E000
E000
E000
E000
ENDCHAR
STARTCHAR Q
ENCODING 81
SWIDTH 911 0
DWIDTH 16 0
BBX 15 16 1 0
BITMAP
0FC0
37F0
5FA8
6858
D02C
E01C
A01A
A016
A016
A03A
E05C
D0AC
6854
5FAA
37F4
0FC8
ENDCHAR
STARTCHAR R
ENCODING 82
SWIDTH 745 0
DWIDTH 13 0
BBX 12 16 1 0
BITMAP
FFC0
FFA0
E050
FFB0
E070
E070
FFD0
FF90
E020
FFC0
E340
E2C0
E1C0
E160
E0E0
E0D0
ENDCHAR
STARTCHAR S
ENCODING 83
SWIDTH 660 0
DWIDTH 12 0
BBX 10 16 1 0
BITMAP
3F00
5E80
BF40
E1C0
A000
F000
EE00
5980
3740
0EC0
01C0
01C0
A1C0
FF40
5E80
3F00
ENDCHAR
STARTCHAR T
ENCODING 84
SWIDTH 641 0
DWIDTH 12 0
BBX 11 16 0 0
BITMAP
FFE0
FFE0
0000
FFE0
0E00
0E00
0E00
0E00
0E00
0E00
0E00
0E00
0E00
0E00
0E00
0E00
ENDCHAR
STARTCHAR U
ENCODING 85
SWIDTH 702 0
DWIDTH 13 0
BBX 11 16 1 0
BITMAP
E0E0
E0E0
E0E0
E0E0
E0E0
E0E0
E0E0
E0E0
E0E0
E0E0
E0E0
E160
D1A0
6F40
7E80
1F00
ENDCHAR
STARTCHAR V
ENCODING 86
SWIDTH 758 0
DWIDTH 14 0
BBX 13 16 0 0
BITMAP
B038
7058
7068
6870
38B0
38D0
34E0
2D60
1DA0
1BC0
16C0
0E80
0E80
0B80
0700
0700
ENDCHAR
STARTCHAR W
ENCODING 87
SWIDTH 972 0
DWIDTH 18 0
BBX 17 16 0 0
BITMAP
D1A380
B1C380
71C580
71E700
6B6700
5BA700
3BDB00
3BBE00
36B600
2F7600
1D7400
1D6C00
1D5C00
1A3800
163800
0E3400
ENDCHAR
STARTCHAR X
ENCODING 88
SWIDTH 712 0
DWIDTH 13 0
BBX 12 16 0 0
BITMAP
78B0
58D0
3560
2DC0
1AC0
1780
0D80
0B00
0E80
0D80
1B40
1DC0
35A0
58E0
68D0
B070
ENDCHAR
STARTCHAR Y
ENCODING 89
SWIDTH 769 0
DWIDTH 14 0
BBX 14 16 0 0
BITMAP
B034
6858
58B0
2CD0
1B60
16A0
0D40
0B40
0480
0680
0680
0680
0680
0680
0680
0680
ENDCHAR
STARTCHAR Z
ENCODING 90
SWIDTH 708 0
DWIDTH 13 0
BBX 13 16 0 0
BITMAP
7F78
7FB0
00E0
7FA0
02C0
0340
0580
0680
0B00
0E00
1A00
1C00
3400
5BE0
6FE0
BFE0
ENDCHAR
STARTCHAR bracketleft
ENCODING 91
SWIDTH 320 0
DWIDTH 6 0
BBX 4 9 1 -1
BITMAP
F0
F0
C0
C0
C0
C0
C0
F0
F0
ENDCHAR
STARTCHAR backslash
ENCODING 92
SWIDTH 298 0
DWIDTH 5 0
BBX 4 8 1 0
BITMAP
C0
C0
C0
A0
60
60
50
30
ENDCHAR
STARTCHAR bracketright
ENCODING 93
SWIDTH 320 0
DWIDTH 6 0
BBX 4 9 1 -1
BITMAP
F0
F0
30
30
30
30
30
F0
F0
ENDCHAR
STARTCHAR asciicircum
ENCODING 94
SWIDTH 309 0
DWIDTH 6 0
BBX 4 3 1 4
BITMAP
40
60
D0
ENDCHAR
STARTCHAR underscore
ENCODING 95
SWIDTH 472 0
DWIDTH 9 0
BBX 7 2 1 0
BITMAP
FE
FE
ENDCHAR
STARTCHAR grave
ENCODING 96
SWIDTH 195 0
DWIDTH 4 0
BBX 2 2 1 9
BITMAP
80
40
ENDCHAR
STARTCHAR a
ENCODING 97
SWIDTH 414 0
DWIDTH 7 0
BBX 7 8 0 0
BITMAP
28
38
34
5C
6C
7A
BE
C6
ENDCHAR
STARTCHAR b
ENCODING 98
SWIDTH 423 0
DWIDTH 8 0
BBX 6 8 1 0
BITMAP
F8
F4
8C
FC
FC
8C
FC
F8
ENDCHAR
STARTCHAR c
ENCODING 99
SWIDTH 446 0
DWIDTH 8 0
BBX 6 8 1 0
BITMAP
78
BC
C4
80
80
C4
BC
78
ENDCHAR
STARTCHAR d
ENCODING 100
SWIDTH 450 0
DWIDTH 8 0
BBX 7 8 1 0
BITMAP
F8
F4
8A
86
86
8A
F4
F8
ENDCHAR
STARTCHAR e
ENCODING 101
SWIDTH 363 0
DWIDTH 7 0
BBX 5 8 1 0
BITMAP
F8
F8
80
F8
F8
80
F8
F8
ENDCHAR
STARTCHAR f
ENCODING 102
SWIDTH 365 0
DWIDTH 7 0
BBX 5 8 1 0
BITMAP
F8
F8
80
F8
F8
80
80
80
ENDCHAR
STARTCHAR g
ENCODING 103
SWIDTH 483 0
DWIDTH 9 0
BBX 7 8 1 0
BITMAP
7C
BA
C4
8E
8E
C6
BC
78
ENDCHAR
STARTCHAR h
ENCODING 104
SWIDTH 428 0
DWIDTH 8 0
BBX 6 8 1 0
BITMAP
8C
8C
8C
FC
FC
8C
8C
8C
ENDCHAR
STARTCHAR i
ENCODING 105
SWIDTH 176 0
DWIDTH 3 0
BBX 1 8 1 0
BITMAP
80
80
80
80
80
80
80
80
ENDCHAR
STARTCHAR j
ENCODING 106
SWIDTH 390 0
DWIDTH 7 0
BBX 5 8 1 0
BITMAP
18
18
18
18
18
98
E8
70
ENDCHAR
STARTCHAR k
ENCODING 107
SWIDTH 381 0
DWIDTH 7 0
BBX 6 8 1 0
BITMAP
98
A8
B0
B0
E0
D0
A8
9C
ENDCHAR
STARTCHAR l
ENCODING 108
SWIDTH 330 0
DWIDTH 6 0
BBX 5 8 1 0
BITMAP
80
80
80
80
80
80
F8
F8
ENDCHAR
STARTCHAR m
ENCODING 109
SWIDTH 501 0
DWIDTH 9 0
BBX 7 8 1 0
BITMAP
C6
AE
EE
BE
AE
96
86
86
ENDCHAR
STARTCHAR n
ENCODING 110
SWIDTH 444 0
DWIDTH 8 0
BBX 6 8 1 0
BITMAP
CC
AC
EC
DC
AC
9C
9C
8C
ENDCHAR
STARTCHAR o
ENCODING 111
SWIDTH 494 0
DWIDTH 9 0
BBX 7 8 1 0
BITMAP
7C
BA
C6
86
86
C6
BA
7C
ENDCHAR
STARTCHAR p
ENCODING 112
SWIDTH 412 0
DWIDTH 7 0
BBX 6 8 1 0
BITMAP
F8
F4
8C
F4
F8
80
80
80
ENDCHAR
STARTCHAR q
ENCODING 113
SWIDTH 494 0
DWIDTH 9 0
BBX 7 8 1 0
BITMAP
7C
BA
C6
86
8E
CE
BA
7E
ENDCHAR
STARTCHAR r
ENCODING 114
SWIDTH 412 0
DWIDTH 7 0
BBX 6 8 1 0
BITMAP
F8
F4
8C
F4
F8
98
98
94
ENDCHAR
STARTCHAR s
ENCODING 115
SWIDTH 379 0
DWIDTH 7 0
BBX 5 8 1 0
BITMAP
70
F8
C0
B0
68
18
F8
70
ENDCHAR
STARTCHAR t
ENCODING 116
SWIDTH 349 0
DWIDTH 6 0
BBX 6 8 0 0
BITMAP
FC
FC
30
30
30
30
30
30
ENDCHAR
STARTCHAR u
ENCODING 117
SWIDTH 400 0
DWIDTH 7 0
BBX 5 8 1 0
BITMAP
88
88
88
88
88
D8
B8
70
ENDCHAR
STARTCHAR v
ENCODING 118
SWIDTH 394 0
DWIDTH 7 0
BBX 7 8 0 0
BITMAP
C6
AA
6C
6C
54
38
38
28
ENDCHAR
STARTCHAR w
ENCODING 119
SWIDTH 521 0
DWIDTH 9 0
BBX 9 8 0 0
BITMAP
CD80
B580
7580
7E80
6B00
6B00
3700
3500
ENDCHAR
STARTCHAR x
ENCODING 120
SWIDTH 369 0
DWIDTH 7 0
BBX 6 8 0 0
BITMAP
AC
74
58
28
28
58
74
AC
ENDCHAR
STARTCHAR y
ENCODING 121
SWIDTH 422 0
DWIDTH 8 0
BBX 7 8 0 0
BITMAP
A6
6A
34
28
00
18
18
18
ENDCHAR
STARTCHAR z
ENCODING 122
SWIDTH 409 0
DWIDTH 7 0
BBX 6 8 1 0
BITMAP
FC
FC
18
30
50
A0
FC
FC
ENDCHAR
STARTCHAR braceleft
ENCODING 123
SWIDTH 443 0
DWIDTH 8 0
BBX 6 9 1 -1
BITMAP
3C
3C
30
F0
F0
30
30
3C
3C
ENDCHAR
STARTCHAR bar
ENCODING 124
SWIDTH 196 0
DWIDTH 4 0
BBX 2 9 1 0
BITMAP
C0
C0
C0
C0
C0
C0
C0
C0
C0
ENDCHAR
STARTCHAR braceright
ENCODING 125
SWIDTH 506 0
DWIDTH 9 0
BBX 6 9 2 -1
BITMAP
F0
F0
30
34
34
30
30
F0
F0
ENDCHAR
STARTCHAR asciitilde
ENCODING 126
SWIDTH 450 0
DWIDTH 8 0
BBX 6 3 1 2
BITMAP
E4
FC
9C
ENDCHAR
STARTCHAR uni00A0
ENCODING 160
SWIDTH 280 0
DWIDTH 5 0
BBX 1 1 0 0
BITMAP
00
ENDCHAR
STARTCHAR exclamdown
ENCODING 161
SWIDTH 196 0
DWIDTH 4 0
BBX 2 8 1 -2
BITMAP
C0
C0
C0
C0
C0
C0
C0
C0
ENDCHAR
STARTCHAR cent
ENCODING 162
SWIDTH 305 0
DWIDTH 5 0
BBX 5 9 0 -1
BITMAP
30
30
78
C0
C0
C0
78
30
30
ENDCHAR
STARTCHAR sterling
ENCODING 163
SWIDTH 408 0
DWIDTH 7 0
BBX 7 8 0 0
BITMAP
78
B4
00
F8
F8
60
FE
FE
ENDCHAR
STARTCHAR currency
ENCODING 164
SWIDTH 401 0
DWIDTH 7 0
BBX 6 6 1 1
BITMAP
C8
B4
68
68
BC
C8
ENDCHAR
STARTCHAR yen
ENCODING 165
SWIDTH 423 0
DWIDTH 8 0
BBX 7 8 0 0
BITMAP
A6
6A
34
28
00
5E
5E
18
ENDCHAR
STARTCHAR brokenbar
ENCODING 166
SWIDTH 196 0
DWIDTH 4 0
BBX 2 9 1 0
BITMAP
C0
C0
C0
C0
00
C0
C0
C0
C0
ENDCHAR
STARTCHAR section
ENCODING 167
SWIDTH 322 0
DWIDTH 6 0
BBX 4 8 1 0
BITMAP
F0
C0
B0
F0
F0
90
70
F0
ENDCHAR
STARTCHAR dieresis
ENCODING 168
SWIDTH 287 0
DWIDTH 5 0
BBX 3 1 1 10
BITMAP
A0
ENDCHAR
STARTCHAR copyright
ENCODING 169
SWIDTH 493 0
DWIDTH 9 0
BBX 7 9 1 0
BITMAP
38
44
82
BA
A2
A2
BA
44
38
ENDCHAR
STARTCHAR ordfeminine
ENCODING 170
SWIDTH 331 0
DWIDTH 6 0
BBX 4 3 1 4
BITMAP
60
E0
F0
ENDCHAR
STARTCHAR guillemotleft
ENCODING 171
SWIDTH 298 0
DWIDTH 5 0
BBX 4 4 1 2
BITMAP
50
A0
D0
B0
ENDCHAR
STARTCHAR logicalnot
ENCODING 172
SWIDTH 420 0
DWIDTH 8 0
BBX 6 4 1 1
BITMAP
FC
FC
0C
0C
ENDCHAR
STARTCHAR uni00AD
ENCODING 173
SWIDTH 326 0
DWIDTH 6 0
BBX 4 2 1 3
BITMAP
F0
F0
ENDCHAR
STARTCHAR registered
ENCODING 174
SWIDTH 493 0
DWIDTH 9 0
BBX 7 9 1 0
BITMAP
38
44
82
BA
BA
AA
AA
44
38
ENDCHAR
STARTCHAR macron
ENCODING 175
SWIDTH 331 0
DWIDTH 6 0
BBX 4 1 1 9
BITMAP
F0
ENDCHAR
STARTCHAR degree
ENCODING 176
SWIDTH 298 0
DWIDTH 5 0
BBX 4 4 1 4
BITMAP
60
D0
D0
60
ENDCHAR
STARTCHAR plusminus
ENCODING 177
SWIDTH 418 0
DWIDTH 8 0
BBX 6 8 1 0
BITMAP
30
30
BC
BC
30
00
FC
FC
ENDCHAR
STARTCHAR uni00B2
ENCODING 178
SWIDTH 233 0
DWIDTH 4 0
BBX 2 3 1 4
BITMAP
C0
C0
C0
ENDCHAR
STARTCHAR uni00B3
ENCODING 179
SWIDTH 228 0
DWIDTH 4 0
BBX 2 3 1 4
BITMAP
C0
40
C0
ENDCHAR
STARTCHAR acute
ENCODING 180
SWIDTH 195 0
DWIDTH 4 0
BBX 2 2 1 9
BITMAP
40
80
ENDCHAR
STARTCHAR uni00B5
ENCODING 181
SWIDTH 506 0
DWIDTH 9 0
BBX 8 10 1 -2
BITMAP
CC
CC
CC
CC
CC
CC
FA
F7
C0
C0
ENDCHAR
STARTCHAR paragraph
ENCODING 182
SWIDTH 435 0
DWIDTH 8 0
BBX 7 8 0 0
BITMAP
7E
BE
C0
AA
6A
0A
0A
0A
ENDCHAR
STARTCHAR periodcentered
ENCODING 183
SWIDTH 176 0
DWIDTH 3 0
BBX 1 2 1 3
BITMAP
80
80
ENDCHAR
STARTCHAR cedilla
ENCODING 184
SWIDTH 261 0
DWIDTH 5 0
BBX 3 4 1 -4
BITMAP
40
C0
20
C0
ENDCHAR
STARTCHAR uni00B9
ENCODING 185
SWIDTH 218 0
DWIDTH 4 0
BBX 2 3 1 4
BITMAP
C0
40
40
ENDCHAR
STARTCHAR ordmasculine
ENCODING 186
SWIDTH 335 0
DWIDTH 6 0
BBX 4 4 1 4
BITMAP
60
F0
F0
F0
ENDCHAR
STARTCHAR guillemotright
ENCODING 187
SWIDTH 298 0
DWIDTH 5 0
BBX 4 4 1 2
BITMAP
A0
50
B0
A0
ENDCHAR
STARTCHAR onequarter
ENCODING 188
SWIDTH 429 0
DWIDTH 8 0
BBX 6 8 1 0
BITMAP
4C
D8
50
70
2C
68
4C
CC
ENDCHAR
STARTCHAR onehalf
ENCODING 189
SWIDTH 437 0
DWIDTH 8 0
BBX 6 8 1 0
BITMAP
CC
48
50
74
2C
6C
4C
CC
ENDCHAR
STARTCHAR threequarters
ENCODING 190
SWIDTH 409 0
DWIDTH 7 0
BBX 6 8 1 0
BITMAP
C8
58
D0
B0
28
68
54
D4
ENDCHAR
STARTCHAR questiondown
ENCODING 191
SWIDTH 346 0
DWIDTH 6 0
BBX 4 8 1 -1
BITMAP
60
00
60
60
A0
C0
F0
60
ENDCHAR
STARTCHAR Agrave
ENCODING 192
SWIDTH 798 0
DWIDTH 14 0
BBX 14 21 0 0
BITMAP
0E00
0600
0500
0300
0000
0680
0740
0740
0DC0
0EC0
0F60
16E0
1CE0
1CD0
2C70
3B70
3FE8
5838
77B8
7034
B01C
ENDCHAR
STARTCHAR Aacute
ENCODING 193
SWIDTH 798 0
DWIDTH 14 0
BBX 14 21 0 0
BITMAP
00A0
00C0
0180
0280
0000
0680
0740
0740
0DC0
0EC0
0F60
16E0
1CE0
1CD0
2C70
3B70
3FE8
5838
77B8
7034
B01C
ENDCHAR
STARTCHAR Acircumflex
ENCODING 194
SWIDTH 798 0
DWIDTH 14 0
BBX 14 21 0 0
BITMAP
0700
0680
0D40
14A0
0000
0680
0740
0740
0DC0
0EC0
0F60
16E0
1CE0
1CD0
2C70
3B70
3FE8
5838
77B8
7034
B01C
ENDCHAR
STARTCHAR Atilde
ENCODING 195
SWIDTH 798 0
DWIDTH 14 0
BBX 14 20 0 0
BITMAP
0620
0920
08C0
0000
0680
0740
0740
0DC0
0EC0
0F60
16E0
1CE0
1CD0
2C70
3B70
3FE8
5838
77B8
7034
B01C
ENDCHAR
STARTCHAR Adieresis
ENCODING 196
SWIDTH 798 0
DWIDTH 14 0
BBX 14 21 0 0
BITMAP
0C60
1290
1290
0C60
0000
0680
0740
0740
0DC0
0EC0
0F60
16E0
1CE0
1CD0
2C70
3B70
3FE8
5838
77B8
7034
B01C
ENDCHAR
STARTCHAR Aring
ENCODING 197
SWIDTH 798 0
DWIDTH 14 0
BBX 14 21 0 0
BITMAP
0300
0480
0480
0300
0000
0680
0740
0740
0DC0
0EC0
0F60
16E0
1CE0
1CD0
2C70
3B70
3FE8
5838
77B8
7034
B01C
ENDCHAR
STARTCHAR AE
ENCODING 198
SWIDTH 1078 0
DWIDTH 19 0
BBX 19 16 0 0
BITMAP
00FFE0
017FE0
02E000
02EFE0
05E000
05E000
07DFC0
0BD000
0EBFC0
165FC0
1C7000
2F7000
3B7000
5877E0
6FF7E0
B06FE0
ENDCHAR
STARTCHAR Ccedilla
ENCODING 199
SWIDTH 776 0
DWIDTH 14 0
BBX 12 21 1 -5
BITMAP
0FC0
37F0
5FB0
6860
D000
E000
A000
A000
A000
A000
E000
D000
6860
5FB0
37F0
0FC0
0200
0700
0500
0900
0600
ENDCHAR
STARTCHAR Egrave
ENCODING 200
SWIDTH 677 0
DWIDTH 12 0
BBX 11 21 1 0
BITMAP
0C00
0600
0600
0300
0000
FFE0
FFE0
E000
FFE0
E000
E000
FFC0
E000
FFC0
FFC0
E000
E000
E000
FFE0
FFE0
FFE0
ENDCHAR
STARTCHAR Eacute
ENCODING 201
SWIDTH 677 0
DWIDTH 12 0
BBX 11 21 1 0
BITMAP
0300
0600
0A00
0C00
0000
FFE0
FFE0
E000
FFE0
E000
E000
FFC0
E000
FFC0
FFC0
E000
E000
E000
FFE0
FFE0
FFE0
ENDCHAR
STARTCHAR Ecircumflex
ENCODING 202
SWIDTH 677 0
DWIDTH 12 0
BBX 11 21 1 0
BITMAP
0A00
1500
1A80
39C0
0000
FFE0
FFE0
E000
FFE0
E000
E000
FFC0
E000
FFC0
FFC0
E000
E000
E000
FFE0
FFE0
FFE0
ENDCHAR
STARTCHAR Edieresis
ENCODING 203
SWIDTH 677 0
DWIDTH 12 0
BBX 11 21 1 0
BITMAP
1980
2940
2940
1980
0000
FFE0
FFE0
E000
FFE0
E000
E000
FFC0
E000
FFC0
FFC0
E000
E000
E000
FFE0
FFE0
FFE0
ENDCHAR
STARTCHAR Igrave
ENCODING 204
SWIDTH 262 0
DWIDTH 5 0
BBX 5 21 -1 0
BITMAP
E0
60
50
30
00
38
38
38
38
38
38
38
38
38
38
38
38
38
38
38
38
ENDCHAR
STARTCHAR Iacute
ENCODING 205
SWIDTH 262 0
DWIDTH 5 0
BBX 5 21 1 0
BITMAP
38
30
60
A0
00
E0
E0
E0
E0
E0
E0
E0
E0
E0
E0
E0
E0
E0
E0
E0
E0
ENDCHAR
STARTCHAR Icircumflex
ENCODING 206
SWIDTH 262 0
DWIDTH 5 0
BBX 8 21 -2 0
BITMAP
18
34
56
A5
00
1C
1C
1C
1C
1C
1C
1C
1C
1C
1C
1C
1C
1C
1C
1C
1C
ENDCHAR
STARTCHAR Idieresis
ENCODING 207
SWIDTH 262 0
DWIDTH 5 0
BBX 9 21 -2 0
BITMAP
6300
9480
9480
6300
0000
1C00
1C00
1C00
1C00
1C00
1C00
1C00
1C00
1C00
1C00
1C00
1C00
1C00
1C00
1C00
1C00
ENDCHAR
STARTCHAR Eth
ENCODING 208
SWIDTH 856 0
DWIDTH 15 0
BBX 15 16 0 0
BITMAP
3FE0
3FD0
3828
3FD4
382C
3816
FE16
000E
FE0E
FE0E
381A
381C
3834
3FE8
3FD0
3FE0
ENDCHAR
STARTCHAR Ntilde
ENCODING 209
SWIDTH 796 0
DWIDTH 14 0
BBX 12 20 1 0
BITMAP
0C40
1240
1180
0000
E070
F070
E870
F870
F470
EC70
F670
ED70
EB70
E5F0
E3F0
E2F0
E1F0
E0F0
E0F0
E070
ENDCHAR
STARTCHAR Ograve
ENCODING 210
SWIDTH 894 0
DWIDTH 16 0
BBX 15 21 1 0
BITMAP
0C00
0600
0600
0300
0000
0FC0
37F0
5FA8
6854
D02C
E01C
A01A
A016
A016
A01A
E01C
D02C
6854
5FA8
37F0
0FC0
ENDCHAR
STARTCHAR Oacute
ENCODING 211
SWIDTH 894 0
DWIDTH 16 0
BBX 15 21 1 0
BITMAP
00C0
0180
0280
0300
0000
0FC0
37F0
5FA8
6854
D02C
E01C
A01A
A016
A016
A01A
E01C
D02C
6854
5FA8
37F0
0FC0
ENDCHAR
STARTCHAR Ocircumflex
ENCODING 212
SWIDTH 894 0
DWIDTH 16 0
BBX 15 21 1 0
BITMAP
0500
0680
0D40
1CE0
0000
0FC0
37F0
5FA8
6854
D02C
E01C
A01A
A016
A016
A01A
E01C
D02C
6854
5FA8
37F0
0FC0
ENDCHAR
STARTCHAR Otilde
ENCODING 213
SWIDTH 894 0
DWIDTH 16 0
BBX 15 20 1 0
BITMAP
0620
0940
10C0
0000
0FC0
37F0
5FA8
6854
D02C
E01C
A01A
A016
A016
A01A
E01C
D02C
6854
5FA8
37F0
0FC0
ENDCHAR
STARTCHAR Odieresis
ENCODING 214
SWIDTH 894 0
DWIDTH 16 0
BBX 15 21 1 0
BITMAP
0CC0
12A0
12A0
0CC0
0000
0FC0
37F0
5FA8
6854
D02C
E01C
A01A
A016
A016
A01A
E01C
D02C
6854
5FA8
37F0
0FC0
ENDCHAR
STARTCHAR multiply
ENCODING 215
SWIDTH 370 0
DWIDTH 7 0
BBX 5 5 1 1
BITMAP
50
A8
50
A8
50
ENDCHAR
STARTCHAR Oslash
ENCODING 216
SWIDTH 894 0
DWIDTH 16 0
BBX 15 16 1 0
BITMAP
0FD0
37AC
5FD8
6868
D0D4
E16C
A1BA
A756
AD96
BA1A
DC1C
F82C
A858
57A8
A7F0
0FC0
ENDCHAR
STARTCHAR Ugrave
ENCODING 217
SWIDTH 702 0
DWIDTH 13 0
BBX 11 21 1 0
BITMAP
3000
1800
1400
0C00
0000
E0E0
E0E0
E0E0
E0E0
E0E0
E0E0
E0E0
E0E0
E0E0
E0E0
E0E0
E160
D1A0
6F40
7E80
1F00
ENDCHAR
STARTCHAR Uacute
ENCODING 218
SWIDTH 702 0
DWIDTH 13 0
BBX 11 21 1 0
BITMAP
0380
0300
0600
0A00
0000
E0E0
E0E0
E0E0
E0E0
E0E0
E0E0
E0E0
E0E0
E0E0
E0E0
E0E0
E160
D1A0
6F40
7E80
1F00
ENDCHAR
STARTCHAR Ucircumflex
ENCODING 219
SWIDTH 702 0
DWIDTH 13 0
BBX 11 21 1 0
BITMAP
1C00
1A00
2F00
5280
0000
E0E0
E0E0
E0E0
E0E0
E0E0
E0E0
E0E0
E0E0
E0E0
E0E0
E0E0
E160
D1A0
6F40
7E80
1F00
ENDCHAR
STARTCHAR Udieresis
ENCODING 220
SWIDTH 702 0
DWIDTH 13 0
BBX 11 21 1 0
BITMAP
3180
4A40
4A40
3180
0000
E0E0
E0E0
E0E0
E0E0
E0E0
E0E0
E0E0
E0E0
E0E0
E0E0
E0E0
E160
D1A0
6F40
7E80
1F00
ENDCHAR
STARTCHAR Yacute
ENCODING 221
SWIDTH 769 0
DWIDTH 14 0
BBX 14 21 0 0
BITMAP
00C0
0180
0280
0300
0000
B034
6858
58B0
2CD0
1B60
16A0
0D40
0B40
0480
0680
0680
0680
0680
0680
0680
0680
ENDCHAR
STARTCHAR Thorn
ENCODING 222
SWIDTH 743 0
DWIDTH 13 0
BBX 12 16 1 0
BITMAP
E000
E000
E000
FFC0
FFA0
E050
FFB0
E070
E070
FFD0
FF90
E020
FFC0
E000
E000
E000
ENDCHAR
STARTCHAR germandbls
ENCODING 223
SWIDTH 424 0
DWIDTH 8 0
BBX 6 8 1 0
BITMAP
78
F4
8C
9C
9C
8C
BC
B8
ENDCHAR
STARTCHAR agrave
ENCODING 224
SWIDTH 414 0
DWIDTH 7 0
BBX 7 11 0 0
BITMAP
30
10
00
28
38
34
5C
6C
7A
BE
C6
ENDCHAR
STARTCHAR aacute
ENCODING 225
SWIDTH 414 0
DWIDTH 7 0
BBX 7 11 0 0
BITMAP
08
08
00
28
38
34
5C
6C
7A
BE
C6
ENDCHAR
STARTCHAR acircumflex
ENCODING 226
SWIDTH 414 0
DWIDTH 7 0
BBX 7 11 0 0
BITMAP
10
28
00
28
38
34
5C
6C
7A
BE
C6
ENDCHAR
STARTCHAR atilde
ENCODING 227
SWIDTH 414 0
DWIDTH 7 0
BBX 7 11 0 0
BITMAP
34
48
00
28
38
34
5C
6C
7A
BE
C6
ENDCHAR
STARTCHAR adieresis
ENCODING 228
SWIDTH 414 0
DWIDTH 7 0
BBX 7 11 0 0
BITMAP
28
00
00
28
38
34
5C
6C
7A
BE
C6
ENDCHAR
STARTCHAR aring
ENCODING 229
SWIDTH 414 0
DWIDTH 7 0
BBX 7 12 0 0
BITMAP
10
18
10
00
28
38
34
5C
6C
7A
BE
C6
ENDCHAR
STARTCHAR ae
ENCODING 230
SWIDTH 593 0
DWIDTH 11 0
BBX 10 8 0 0
BITMAP
0FC0
1BC0
1A00
2BC0
37C0
5600
7FC0
A7C0
ENDCHAR
STARTCHAR ccedilla
ENCODING 231
SWIDTH 446 0
DWIDTH 8 0
BBX 6 12 1 -4
BITMAP
78
BC
C4
80
80
C4
BC
78
10
30
08
30
ENDCHAR
STARTCHAR egrave
ENCODING 232
SWIDTH 363 0
DWIDTH 7 0
BBX 5 11 1 0
BITMAP
40
20
00
F8
F8
80
F8
F8
80
F8
F8
ENDCHAR
STARTCHAR eacute
ENCODING 233
SWIDTH 363 0
DWIDTH 7 0
BBX 5 11 1 0
BITMAP
10
10
00
F8
F8
80
F8
F8
80
F8
F8
ENDCHAR
STARTCHAR ecircumflex
ENCODING 234
SWIDTH 363 0
DWIDTH 7 0
BBX 5 11 1 0
BITMAP
20
50
00
F8
F8
80
F8
F8
80
F8
F8
ENDCHAR
STARTCHAR edieresis
ENCODING 235
SWIDTH 363 0
DWIDTH 7 0
BBX 5 11 1 0
BITMAP
50
00
00
F8
F8
80
F8
F8
80
F8
F8
ENDCHAR
STARTCHAR igrave
ENCODING 236
SWIDTH 176 0
DWIDTH 3 0
BBX 2 11 0 0
BITMAP
80
40
00
C0
C0
C0
C0
C0
C0
C0
C0
ENDCHAR
STARTCHAR iacute
ENCODING 237
SWIDTH 176 0
DWIDTH 3 0
BBX 2 11 1 0
BITMAP
40
C0
00
80
80
80
80
80
80
80
80
ENDCHAR
STARTCHAR icircumflex
ENCODING 238
SWIDTH 176 0
DWIDTH 3 0
BBX 3 11 0 0
BITMAP
40
A0
00
A0
A0
A0
A0
A0
A0
A0
A0
ENDCHAR
STARTCHAR idieresis
ENCODING 239
SWIDTH 176 0
DWIDTH 3 0
BBX 3 11 0 0
BITMAP
A0
00
00
A0
A0
A0
A0
A0
A0
A0
A0
ENDCHAR
STARTCHAR eth
ENCODING 240
SWIDTH 455 0
DWIDTH 8 0
BBX 8 8 0 0
BITMAP
7C
7A
65
03
E3
65
7A
7C
ENDCHAR
STARTCHAR ntilde
ENCODING 241
SWIDTH 444 0
DWIDTH 8 0
BBX 6 11 1 0
BITMAP
68
58
00
CC
AC
EC
DC
AC
9C
9C
8C
ENDCHAR
STARTCHAR ograve
ENCODING 242
SWIDTH 494 0
DWIDTH 9 0
BBX 7 11 1 0
BITMAP
20
10
00
7C
BA
C6
86
86
C6
BA
7C
ENDCHAR
STARTCHAR oacute
ENCODING 243
SWIDTH 494 0
DWIDTH 9 0
BBX 7 11 1 0
BITMAP
08
10
00
7C
BA
C6
86
86
C6
BA
7C
ENDCHAR
STARTCHAR ocircumflex
ENCODING 244
SWIDTH 494 0
DWIDTH 9 0
BBX 7 11 1 0
BITMAP
30
28
00
7C
BA
C6
86
86
C6
BA
7C
ENDCHAR
STARTCHAR otilde
ENCODING 245
SWIDTH 494 0
DWIDTH 9 0
BBX 7 11 1 0
BITMAP
24
58
00
7C
BA
C6
86
86
C6
BA
7C
ENDCHAR
STARTCHAR odieresis
ENCODING 246
SWIDTH 494 0
DWIDTH 9 0
BBX 7 11 1 0
BITMAP
28
00
00
7C
BA
C6
86
86
C6
BA
7C
ENDCHAR
STARTCHAR divide
ENCODING 247
SWIDTH 418 0
DWIDTH 8 0
BBX 6 7 1 0
BITMAP
30
20
FC
00
FC
20
30
ENDCHAR
STARTCHAR oslash
ENCODING 248
SWIDTH 494 0
DWIDTH 9 0
BBX 7 8 1 0
BITMAP
7A
B4
CA
96
A6
A6
5A
BC
ENDCHAR
STARTCHAR ugrave
ENCODING 249
SWIDTH 400 0
DWIDTH 7 0
BBX 5 11 1 0
BITMAP
40
20
00
88
88
88
88
88
D8
B8
70
ENDCHAR
STARTCHAR uacute
ENCODING 250
SWIDTH 400 0
DWIDTH 7 0
BBX 5 11 1 0
BITMAP
10
20
00
88
88
88
88
88
D8
B8
70
ENDCHAR
STARTCHAR ucircumflex
ENCODING 251
SWIDTH 400 0
DWIDTH 7 0
BBX 5 11 1 0
BITMAP
20
50
00
88
88
88
88
88
D8
B8
70
ENDCHAR
STARTCHAR udieresis
ENCODING 252
SWIDTH 400 0
DWIDTH 7 0
BBX 5 11 1 0
BITMAP
50
00
00
88
88
88
88
88
D8
B8
70
ENDCHAR
STARTCHAR yacute
ENCODING 253
SWIDTH 422 0
DWIDTH 8 0
BBX 7 11 0 0
BITMAP
08
08
10
A6
6A
34
28
00
18
18
18
ENDCHAR
STARTCHAR thorn
ENCODING 254
SWIDTH 412 0
DWIDTH 7 0
BBX 6 8 1 0
BITMAP
80
F8
84
FC
F4
84
F8
80
ENDCHAR
STARTCHAR ydieresis
ENCODING 255
SWIDTH 422 0
DWIDTH 8 0
BBX 7 11 0 0
BITMAP
28
00
00
A6
6A
34
28
00
18
18
18
ENDCHAR
STARTCHAR Edotaccent
ENCODING 278
SWIDTH 677 0
DWIDTH 12 0
BBX 11 18 1 0
BITMAP
0600
0600
FFE0
FFE0
E000
FFE0
E000
E000
FFC0
E000
FFC0
FFC0
E000
E000
E000
FFE0
FFE0
FFE0
ENDCHAR
STARTCHAR edotaccent
ENCODING 279
SWIDTH 363 0
DWIDTH 7 0
BBX 5 11 1 0
BITMAP
20
30
00
F8
F8
80
F8
F8
80
F8
F8
ENDCHAR
STARTCHAR dotlessi
ENCODING 305
SWIDTH 176 0
DWIDTH 3 0
BBX 1 8 1 0
BITMAP
80
80
80
80
80
80
80
80
ENDCHAR
STARTCHAR OE
ENCODING 338
SWIDTH 1221 0
DWIDTH 22 0
BBX 20 16 1 0
BITMAP
0FEFF0
37EFF0
586800
67EFF0
C86800
D06800
A06FE0
A06800
A06FE0
A06FE0
E06800
D06800
686800
5FEFF0
37EFF0
0FEFF0
ENDCHAR
STARTCHAR oe
ENCODING 339
SWIDTH 637 0
DWIDTH 11 0
BBX 10 8 1 0
BITMAP
7BC0
BBC0
CC00
8BC0
8BC0
CC00
BBC0
7BC0
ENDCHAR
STARTCHAR Wcircumflex
ENCODING 372
SWIDTH 972 0
DWIDTH 18 0
BBX 17 21 0 0
BITMAP
01C000
02A000
036000
063000
000000
D1A380
B1C380
71C580
71E700
6B6700
5BA700
3BDB00
3BBE00
36B600
2F7600
1D7400
1D6C00
1D5C00
1A3800
163800
0E3400
ENDCHAR
STARTCHAR wcircumflex
ENCODING 373
SWIDTH 521 0
DWIDTH 9 0
BBX 9 11 0 0
BITMAP
0800
1400
0000
CD80
B580
7580
7E80
6B00
6B00
3700
3500
ENDCHAR
STARTCHAR Ycircumflex
ENCODING 374
SWIDTH 769 0
DWIDTH 14 0
BBX 14 21 0 0
BITMAP
0500
0A80
0D40
1CC0
0020
B034
6858
58B0
2CD0
1B60
16A0
0D40
0B40
0480
0680
0680
0680
0680
0680
0680
0680
ENDCHAR
STARTCHAR ycircumflex
ENCODING 375
SWIDTH 422 0
DWIDTH 8 0
BBX 7 11 0 0
BITMAP
10
28
00
A6
6A
34
28
00
18
18
18
ENDCHAR
STARTCHAR Ydieresis
ENCODING 376
SWIDTH 769 0
DWIDTH 14 0
BBX 14 21 0 0
BITMAP
0CC0
1520
1520
0CC0
0000
B034
6858
58B0
2CD0
1B60
16A0
0D40
0B40
0480
0680
0680
0680
0680
0680
0680
0680
ENDCHAR
STARTCHAR circumflex
ENCODING 710
SWIDTH 298 0
DWIDTH 5 0
BBX 3 2 1 9
BITMAP
40
A0
ENDCHAR
STARTCHAR dotaccent
ENCODING 729
SWIDTH 212 0
DWIDTH 4 0
BBX 2 2 1 9
BITMAP
C0
C0
ENDCHAR
STARTCHAR ring
ENCODING 730
SWIDTH 212 0
DWIDTH 4 0
BBX 2 3 1 9
BITMAP
C0
C0
C0
ENDCHAR
STARTCHAR tilde
ENCODING 732
SWIDTH 329 0
DWIDTH 6 0
BBX 4 2 1 9
BITMAP
D0
B0
ENDCHAR
STARTCHAR gravecomb
ENCODING 768
SWIDTH 0 0
DWIDTH 0 0
BBX 2 2 1 9
BITMAP
80
40
ENDCHAR
STARTCHAR acutecomb
ENCODING 769
SWIDTH 0 0
DWIDTH 0 0
BBX 2 2 1 9
BITMAP
40
80
ENDCHAR
STARTCHAR uni0302
ENCODING 770
SWIDTH 0 0
DWIDTH 0 0
BBX 3 2 1 9
BITMAP
40
A0
ENDCHAR
STARTCHAR tildecomb
ENCODING 771
SWIDTH 0 0
DWIDTH 0 0
BBX 4 2 1 9
BITMAP
D0
B0
ENDCHAR
STARTCHAR uni0307
ENCODING 775
SWIDTH 0 0
DWIDTH 0 0
BBX 2 2 1 9
BITMAP
C0
C0
ENDCHAR
STARTCHAR uni0308
ENCODING 776
SWIDTH 0 0
DWIDTH 0 0
BBX 3 1 1 10
BITMAP
A0
ENDCHAR
STARTCHAR uni030A
ENCODING 778
SWIDTH 0 0
DWIDTH 0 0
BBX 2 3 1 9
BITMAP
C0
C0
C0
ENDCHAR
STARTCHAR uni0327
ENCODING 807
SWIDTH 0 0
DWIDTH 0 0
BBX 3 4 1 -4
BITMAP
40
C0
20
C0
ENDCHAR
STARTCHAR Wgrave
ENCODING 7808
SWIDTH 972 0
DWIDTH 18 0
BBX 17 21 0 0
BITMAP
018000
014000
00C000
00A000
000000
D1A380
B1C380
71C580
71E700
6B6700
5BA700
3BDB00
3BBE00
36B600
2F7600
1D7400
1D6C00
1D5C00
1A3800
163800
0E3400
ENDCHAR
STARTCHAR wgrave
ENCODING 7809
SWIDTH 521 0
DWIDTH 9 0
BBX 9 11 0 0
BITMAP
0800
0C00
0000
CD80
B580
7580
7E80
6B00
6B00
3700
3500
ENDCHAR
STARTCHAR Wacute
ENCODING 7810
SWIDTH 972 0
DWIDTH 18 0
BBX 17 21 0 0
BITMAP
00A000
00C000
014000
018000
000000
D1A380
B1C380
71C580
71E700
6B6700
5BA700
3BDB00
3BBE00
36B600
2F7600
1D7400
1D6C00
1D5C00
1A3800
163800
0E3400
ENDCHAR
STARTCHAR wacute
ENCODING 7811
SWIDTH 521 0
DWIDTH 9 0
BBX 9 11 0 0
BITMAP
0C00
0800
0000
CD80
B580
7580
7E80
6B00
6B00
3700
3500
ENDCHAR
STARTCHAR Wdieresis
ENCODING 7812
SWIDTH 972 0
DWIDTH 18 0
BBX 17 21 0 0
BITMAP
063000
094800
094800
063000
000000
D1A380
B1C380
71C580
71E700
6B6700
5BA700
3BDB00
3BBE00
36B600
2F7600
1D7400
1D6C00
1D5C00
1A3800
163800
0E3400
ENDCHAR
STARTCHAR wdieresis
ENCODING 7813
SWIDTH 521 0
DWIDTH 9 0
BBX 9 11 0 0
BITMAP
1400
0000
0000
CD80
B580
7580
7E80
6B00
6B00
3700
3500
ENDCHAR
STARTCHAR uni1E9E
ENCODING 7838
SWIDTH 784 0
DWIDTH 14 0
BBX 12 16 1 0
BITMAP
FFE0
FFE0
E000
FFE0
E1A0
E2C0
E340
E5A0
E6D0
E970
E070
E070
E070
EFB0
EFF0
EFC0
ENDCHAR
STARTCHAR Ygrave
ENCODING 7922
SWIDTH 769 0
DWIDTH 14 0
BBX 14 21 0 0
BITMAP
0600
0500
0300
0180
0000
B034
6858
58B0
2CD0
1B60
16A0
0D40
0B40
0480
0680
0680
0680
0680
0680
0680
0680
ENDCHAR
STARTCHAR ygrave
ENCODING 7923
SWIDTH 422 0
DWIDTH 8 0
BBX 7 11 0 0
BITMAP
10
08
00
A6
6A
34
28
00
18
18
18
ENDCHAR
STARTCHAR endash
ENCODING 8211
SWIDTH 507 0
DWIDTH 9 0
BBX 7 2 1 3
BITMAP
FE
FE
ENDCHAR
STARTCHAR emdash
ENCODING 8212
SWIDTH 552 0
DWIDTH 10 0
BBX 8 2 1 3
BITMAP
FF
FF
ENDCHAR
STARTCHAR quoteleft
ENCODING 8216
SWIDTH 146 0
DWIDTH 3 0
BBX 2 3 0 5
BITMAP
80
C0
C0
ENDCHAR
STARTCHAR quoteright
ENCODING 8217
SWIDTH 146 0
DWIDTH 3 0
BBX 2 3 0 5
BITMAP
C0
40
40
ENDCHAR
STARTCHAR quotesinglbase
ENCODING 8218
SWIDTH 146 0
DWIDTH 3 0
BBX 2 2 0 -3
BITMAP
C0
40
ENDCHAR
STARTCHAR quotedblleft
ENCODING 8220
SWIDTH 297 0
DWIDTH 5 0
BBX 5 3 0 5
BITMAP
90
D8
D8
ENDCHAR
STARTCHAR quotedblright
ENCODING 8221
SWIDTH 297 0
DWIDTH 5 0
BBX 5 3 0 5
BITMAP
D8
48
48
ENDCHAR
STARTCHAR quotedblbase
ENCODING 8222
SWIDTH 297 0
DWIDTH 5 0
BBX 5 2 0 -3
BITMAP
D8
48
ENDCHAR
STARTCHAR bullet
ENCODING 8226
SWIDTH 302 0
DWIDTH 5 0
BBX 4 4 1 2
BITMAP
60
90
90
60
ENDCHAR
STARTCHAR ellipsis
ENCODING 8230
SWIDTH 528 0
DWIDTH 10 0
BBX 8 2 1 0
BITMAP
9B
9B
ENDCHAR
STARTCHAR guilsinglleft
ENCODING 8249
SWIDTH 178 0
DWIDTH 3 0
BBX 1 4 1 2
BITMAP
80
80
80
80
ENDCHAR
STARTCHAR guilsinglright
ENCODING 8250
SWIDTH 178 0
DWIDTH 3 0
BBX 1 4 1 2
BITMAP
80
80
80
80
ENDCHAR
STARTCHAR fraction
ENCODING 8260
SWIDTH 362 0
DWIDTH 7 0
BBX 6 8 0 0
BITMAP
0C
14
18
28
30
50
60
A0
ENDCHAR
STARTCHAR uni2074
ENCODING 8308
SWIDTH 204 0
DWIDTH 4 0
BBX 2 3 1 4
BITMAP
C0
C0
C0
ENDCHAR
STARTCHAR Euro
ENCODING 8364
SWIDTH 462 0
DWIDTH 8 0
BBX 8 8 0 0
BITMAP
1E
3D
62
F0
F0
62
3D
1E
ENDCHAR
STARTCHAR trademark
ENCODING 8482
SWIDTH 461 0
DWIDTH 8 0
BBX 8 4 0 4
BITMAP
EB
0B
4D
49
ENDCHAR
STARTCHAR minus
ENCODING 8722
SWIDTH 420 0
DWIDTH 8 0
BBX 6 2 1 3
BITMAP
FC
FC
ENDCHAR
STARTCHAR uni2215
ENCODING 8725
SWIDTH 278 0
DWIDTH 5 0
BBX 4 7 1 0
BITMAP
30
50
60
60
C0
C0
C0
ENDCHAR
STARTCHAR .notdef
ENCODING -1
SWIDTH 500 0
DWIDTH 9 0
BBX 7 20 1 -4
BITMAP
FE
82
82
82
82
82
82
82
82
82
82
82
82
82
82
82
82
82
82
FE
ENDCHAR
STARTCHAR NULL
ENCODING -1
SWIDTH 600 0
DWIDTH 11 0
BBX 1 1 0 0
BITMAP
00
ENDCHAR
STARTCHAR acutecomb.case
ENCODING -1
SWIDTH 0 0
DWIDTH 0 0
BBX 4 4 1 17
BITMAP
30
60
60
C0
ENDCHAR
STARTCHAR ampersand.case
ENCODING -1
SWIDTH 797 0
DWIDTH 14 0
BBX 13 16 1 0
BITMAP
1F00
2E80
3580
5AC0
6AC0
5B80
3680
6D00
B620
CD50
BB68
A5D0
A360
DEC0
7D60
3EF0
ENDCHAR
STARTCHAR asciicircum.case
ENCODING -1
SWIDTH 540 0
DWIDTH 10 0
BBX 9 8 0 8
BITMAP
0800
0C00
1400
1A00
3500
3300
6280
A180
ENDCHAR
STARTCHAR asciitilde.case
ENCODING -1
SWIDTH 640 0
DWIDTH 12 0
BBX 10 5 1 6
BITMAP
7840
8780
7840
FFC0
8780
ENDCHAR
STARTCHAR asterisk.case
ENCODING -1
SWIDTH 482 0
DWIDTH 9 0
BBX 7 7 1 9
BITMAP
30
B0
4C
C6
48
74
28
ENDCHAR
STARTCHAR at.case
ENCODING -1
SWIDTH 915 0
DWIDTH 16 0
BBX 15 16 1 0
BITMAP
0FE0
17D0
3838
600C
A7AC
CBE6
D466
D866
D866
D466
CBDA
A7C4
6038
3820
17E0
0FC0
ENDCHAR
STARTCHAR backslash.case
ENCODING -1
SWIDTH 504 0
DWIDTH 9 0
BBX 9 18 0 -1
BITMAP
D000
B000
7000
6800
5800
3800
3400
2C00
1C00
1C00
1600
0E00
0E00
0D00
0B00
0700
0680
0580
ENDCHAR
STARTCHAR bar.case
ENCODING -1
SWIDTH 262 0
DWIDTH 5 0
BBX 3 18 1 -1
BITMAP
E0
E0
E0
E0
E0
E0
E0
E0
E0
E0
E0
E0
E0
E0
E0
E0
E0
E0
ENDCHAR
STARTCHAR braceleft.case
ENCODING -1
SWIDTH 504 0
DWIDTH 9 0
BBX 7 18 1 -1
BITMAP
3A
3A
38
3A
38
38
38
38
B8
B8
B8
38
38
38
38
3A
3A
3A
ENDCHAR
STARTCHAR braceright.case
ENCODING -1
SWIDTH 506 0
DWIDTH 9 0
BBX 7 18 1 -3
BITMAP
B8
B8
B8
38
38
38
38
3A
3A
3A
38
38
38
38
B8
38
B8
B8
ENDCHAR
STARTCHAR bracketleft.case
ENCODING -1
SWIDTH 453 0
DWIDTH 8 0
BBX 6 18 1 -1
BITMAP
FC
FC
E0
FC
E0
E0
E0
E0
E0
E0
E0
E0
E0
E0
E0
FC
FC
FC
ENDCHAR
STARTCHAR bracketright.case
ENCODING -1
SWIDTH 453 0
DWIDTH 8 0
BBX 6 18 1 -3
BITMAP
FC
FC
FC
1C
1C
1C
1C
1C
1C
1C
1C
1C
1C
1C
FC
1C
FC
FC
ENDCHAR
STARTCHAR brokenbar.case
ENCODING -1
SWIDTH 262 0
DWIDTH 5 0
BBX 3 18 1 0
BITMAP
E0
E0
E0
E0
E0
E0
E0
E0
00
00
E0
E0
E0
E0
E0
E0
E0
E0
ENDCHAR
STARTCHAR bullet.case
ENCODING -1
SWIDTH 503 0
DWIDTH 9 0
BBX 7 8 1 4
BITMAP
38
7C
C6
C6
C6
C6
7C
38
ENDCHAR
STARTCHAR uni0327.case
ENCODING -1
SWIDTH 0 0
DWIDTH 0 0
BBX 4 5 1 -5
BITMAP
40
60
90
10
E0
ENDCHAR
STARTCHAR cent.case
ENCODING -1
SWIDTH 577 0
DWIDTH 10 0
BBX 9 18 1 -1
BITMAP
0C00
0C00
0C00
1E00
2100
5E80
BF00
E000
E000
E000
E000
BF00
5E80
2100
1E00
0C00
0C00
0C00
ENDCHAR
STARTCHAR uni0302.case
ENCODING -1
SWIDTH 0 0
DWIDTH 0 0
BBX 8 4 1 17
BITMAP
28
54
6A
E7
ENDCHAR
STARTCHAR colon.case
ENCODING -1
SWIDTH 262 0
DWIDTH 5 0
BBX 3 10 1 0
BITMAP
E0
E0
E0
00
00
00
00
E0
E0
E0
ENDCHAR
STARTCHAR comma.case
ENCODING -1
SWIDTH 338 0
DWIDTH 6 0
BBX 4 5 1 -2
BITMAP
70
70
B0
D0
E0
ENDCHAR
STARTCHAR copyright.case
ENCODING -1
SWIDTH 895 0
DWIDTH 16 0
BBX 15 16 1 0
BITMAP
0FC0
37B0
5868
6018
C78C
CB4C
948A
9806
9806
948A
CB4C
C78C
6018
5868
37B0
0FC0
ENDCHAR
STARTCHAR currency.case
ENCODING -1
SWIDTH 676 0
DWIDTH 12 0
BBX 11 11 1 1
BITMAP
6080
D1C0
BF40
6D80
3300
3300
3300
6D80
BEE0
E140
4080
ENDCHAR
STARTCHAR degree.case
ENCODING -1
SWIDTH 413 0
DWIDTH 7 0
BBX 6 7 1 9
BITMAP
78
B4
CC
8C
CC
B8
70
ENDCHAR
STARTCHAR uni0308.case
ENCODING -1
SWIDTH 0 0
DWIDTH 0 0
BBX 8 4 1 17
BITMAP
63
95
95
63
ENDCHAR
STARTCHAR divide.case
ENCODING -1
SWIDTH 618 0
DWIDTH 11 0
BBX 9 10 1 3
BITMAP
0C00
1400
0C00
0000
FF80
FF80
FF80
0C00
1400
0C00
ENDCHAR
STARTCHAR uni2215.case
ENCODING -1
SWIDTH 483 0
DWIDTH 9 0
BBX 8 16 0 0
BITMAP
07
0B
0D
0E
16
1A
1C
1C
34
38
38
58
68
70
B0
D0
ENDCHAR
STARTCHAR dollar.case
ENCODING -1
SWIDTH 660 0
DWIDTH 12 0
BBX 10 18 1 -1
BITMAP
0C00
1E00
6D80
AF40
DEC0
AD80
A400
FC00
5B00
3780
0EC0
0DC0
6DC0
EEC0
AF40
4D80
3E00
0C00
ENDCHAR
STARTCHAR eight.case
ENCODING -1
SWIDTH 561 0
DWIDTH 10 0
BBX 9 16 1 0
BITMAP
3C00
7E00
DB00
A680
A500
A680
DB00
B700
ED00
DB00
A680
A500
A680
DB00
7E00
3C00
ENDCHAR
STARTCHAR ellipsis.case
ENCODING -1
SWIDTH 766 0
DWIDTH 14 0
BBX 12 3 1 0
BITMAP
ED70
ED70
ED70
ENDCHAR
STARTCHAR emdash.case
ENCODING -1
SWIDTH 790 0
DWIDTH 14 0
BBX 12 3 1 6
BITMAP
FFF0
FFF0
FFF0
ENDCHAR
STARTCHAR endash.case
ENCODING -1
SWIDTH 721 0
DWIDTH 13 0
BBX 11 3 1 6
BITMAP
FFE0
FFE0
FFE0
ENDCHAR
STARTCHAR equal.case
ENCODING -1
SWIDTH 618 0
DWIDTH 11 0
BBX 9 9 1 3
BITMAP
FF80
FF80
0000
FF80
0000
FF80
0000
FF80
FF80
ENDCHAR
STARTCHAR Euro.case
ENCODING -1
SWIDTH 767 0
DWIDTH 14 0
BBX 13 16 0 0
BITMAP
07E0
0BF8
15D0
2E30
3400
3800
FF80
0000
FF80
FF80
3800
3400
2E30
15D0
0BF8
07E0
ENDCHAR
STARTCHAR exclam.case
ENCODING -1
SWIDTH 262 0
DWIDTH 5 0
BBX 3 16 1 0
BITMAP
E0
E0
E0
E0
E0
E0
E0
E0
E0
E0
E0
E0
00
E0
E0
E0
ENDCHAR
STARTCHAR exclamdown.case
ENCODING -1
SWIDTH 262 0
DWIDTH 5 0
BBX 3 16 1 -5
BITMAP
E0
E0
E0
00
E0
E0
E0
E0
E0
E0
E0
E0
E0
E0
E0
E0
ENDCHAR
STARTCHAR five.case
ENCODING -1
SWIDTH 558 0
DWIDTH 10 0
BBX 9 16 1 0
BITMAP
FF00
FF00
FF00
0000
E000
E000
EC00
E200
ED00
EA80
0680
A500
A680
DB00
FE00
3C00
ENDCHAR
STARTCHAR four.case
ENCODING -1
SWIDTH 585 0
DWIDTH 11 0
BBX 9 16 1 0
BITMAP
1600
1A00
1C00
3400
3800
5800
7000
B000
DD00
2D00
FD80
FD80
0D00
FD80
0D00
0D00
ENDCHAR
STARTCHAR uni2074.case
ENCODING -1
SWIDTH 312 0
DWIDTH 6 0
BBX 4 7 1 9
BITMAP
60
A0
C0
C0
F0
F0
30
ENDCHAR
STARTCHAR fraction.case
ENCODING -1
SWIDTH 655 0
DWIDTH 12 0
BBX 10 16 1 0
BITMAP
01C0
0180
0280
0300
0500
0600
0A00
0C00
1400
1800
2800
3000
5000
6000
A000
C000
ENDCHAR
STARTCHAR gravecomb.case
ENCODING -1
SWIDTH 0 0
DWIDTH 0 0
BBX 4 4 1 17
BITMAP
C0
60
60
30
ENDCHAR
STARTCHAR greater.case
ENCODING -1
SWIDTH 677 0
DWIDTH 12 0
BBX 10 12 1 1
BITMAP
8000
E000
5000
BC00
6B00
1680
0DC0
3700
5E00
F800
A000
C000
ENDCHAR
STARTCHAR guillemotleft.case
ENCODING -1
SWIDTH 666 0
DWIDTH 12 0
BBX 10 10 1 2
BITMAP
1040
2080
51C0
F340
6180
A280
F3C0
5140
2080
1040
ENDCHAR
STARTCHAR guillemotright.case
ENCODING -1
SWIDTH 666 0
DWIDTH 12 0
BBX 10 10 1 2
BITMAP
8200
4100
A280
F3C0
6180
5140
F3C0
A280
4300
8400
ENDCHAR
STARTCHAR guilsinglleft.case
ENCODING -1
SWIDTH 338 0
DWIDTH 6 0
BBX 4 10 1 2
BITMAP
10
20
50
F0
60
A0
F0
50
20
10
ENDCHAR
STARTCHAR guilsinglright.case
ENCODING -1
SWIDTH 338 0
DWIDTH 6 0
BBX 4 10 1 2
BITMAP
80
40
A0
F0
60
50
F0
A0
40
80
ENDCHAR
STARTCHAR hyphen.case
ENCODING -1
SWIDTH 445 0
DWIDTH 8 0
BBX 6 3 1 6
BITMAP
FC
FC
FC
ENDCHAR
STARTCHAR less.case
ENCODING -1
SWIDTH 677 0
DWIDTH 12 0
BBX 10 12 1 1
BITMAP
0040
01C0
07C0
0AC0
3700
E800
5E00
3580
0F40
03C0
00C0
0040
ENDCHAR
STARTCHAR logicalnot.case
ENCODING -1
SWIDTH 618 0
DWIDTH 11 0
BBX 9 7 1 2
BITMAP
FF80
FF80
FF80
0000
0380
0380
0380
ENDCHAR
STARTCHAR uni00B5.case
ENCODING -1
SWIDTH 792 0
DWIDTH 14 0
BBX 13 20 1 -4
BITMAP
E0E0
E0E0
E0E0
E0E0
E0E0
E0E0
E0E0
E0E0
E0E0
E0E0
E0E0
E160
F1A0
EF58
FEB8
FF18
E000
E000
E000
E000
ENDCHAR
STARTCHAR minus.case
ENCODING -1
SWIDTH 618 0
DWIDTH 11 0
BBX 9 3 1 6
BITMAP
FF80
FF80
FF80
ENDCHAR
STARTCHAR multiply.case
ENCODING -1
SWIDTH 580 0
DWIDTH 10 0
BBX 9 9 1 3
BITMAP
2300
6580
BA80
5500
2A00
5600
AB80
5500
2200
ENDCHAR
STARTCHAR nine.case
ENCODING -1
SWIDTH 558 0
DWIDTH 10 0
BBX 9 16 1 -2
BITMAP
3C00
7F00
DB00
A680
A500
A580
DD80
BD80
4580
3D80
0580
A500
A680
DB00
FE00
3C00
ENDCHAR
STARTCHAR numbersign.case
ENCODING -1
SWIDTH 776 0
DWIDTH 14 0
BBX 12 16 1 0
BITMAP
1CE0
2CE0
2CE0
77F0
3800
7BF0
7BF0
3800
01C0
FDE0
FDE0
FEE0
0340
7340
7380
7380
ENDCHAR
STARTCHAR one.case
ENCODING -1
SWIDTH 378 0
DWIDTH 7 0
BBX 6 16 0 0
BITMAP
DC
DC
1C
DC
1C
1C
1C
1C
1C
1C
1C
1C
1C
1C
1C
1C
ENDCHAR
STARTCHAR onehalf.case
ENCODING -1
SWIDTH 735 0
DWIDTH 13 0
BBX 11 16 1 0
BITMAP
B0A0
B0C0
3140
3180
3280
3300
3500
0600
0AE0
0DE0
1460
18A0
2940
31E0
51E0
6000
ENDCHAR
STARTCHAR onequarter.case
ENCODING -1
SWIDTH 722 0
DWIDTH 13 0
BBX 11 16 1 0
BITMAP
B0A0
B0C0
3140
3180
3280
3300
3500
0600
0AC0
0D40
1580
1980
29E0
31E0
5060
6000
ENDCHAR
STARTCHAR uni00B9.case
ENCODING -1
SWIDTH 306 0
DWIDTH 6 0
BBX 4 7 1 9
BITMAP
B0
B0
30
30
30
30
30
ENDCHAR
STARTCHAR ordfeminine.case
ENCODING -1
SWIDTH 456 0
DWIDTH 8 0
BBX 6 7 1 9
BITMAP
30
28
58
78
74
BC
CC
ENDCHAR
STARTCHAR ordmasculine.case
ENCODING -1
SWIDTH 489 0
DWIDTH 9 0
BBX 7 8 1 8
BITMAP
78
BC
C6
C6
C6
BA
44
38
ENDCHAR
STARTCHAR paragraph.case
ENCODING -1
SWIDTH 893 0
DWIDTH 16 0
BBX 15 16 0 0
BITMAP
1FFE
7FFE
6000
AFFE
D0B6
A0B6
BFB6
5FB6
20B6
1FB6
00B6
00B6
00B6
00B6
00B6
00B6
ENDCHAR
STARTCHAR parenleft.case
ENCODING -1
SWIDTH 290 0
DWIDTH 5 0
BBX 5 18 1 -1
BITMAP
68
70
B0
E0
E0
E0
A0
A0
A0
A0
A0
A0
E0
E0
D0
B0
70
68
ENDCHAR
STARTCHAR parenright.case
ENCODING -1
SWIDTH 290 0
DWIDTH 5 0
BBX 5 18 0 -3
BITMAP
E0
E0
B0
70
70
68
50
58
28
28
58
50
68
70
70
B0
E0
E0
ENDCHAR
STARTCHAR percent.case
ENCODING -1
SWIDTH 827 0
DWIDTH 15 0
BBX 14 16 0 0
BITMAP
3C3C
5A34
A658
A668
A6B0
5CE0
3960
01C0
0700
0D38
1674
1ACC
2CCC
34CC
58B4
F078
ENDCHAR
STARTCHAR period.case
ENCODING -1
SWIDTH 262 0
DWIDTH 5 0
BBX 3 3 1 0
BITMAP
E0
E0
E0
ENDCHAR
STARTCHAR periodcentered.case
ENCODING -1
SWIDTH 262 0
DWIDTH 5 0
BBX 3 3 1 6
BITMAP
E0
E0
E0
ENDCHAR
STARTCHAR plus.case
ENCODING -1
SWIDTH 616 0
DWIDTH 11 0
BBX 9 10 1 3
BITMAP
1C00
1C00
1C00
1C00
DD80
DD80
DD80
1C00
1C00
1C00
ENDCHAR
STARTCHAR plusminus.case
ENCODING -1
SWIDTH 618 0
DWIDTH 11 0
BBX 9 14 1 0
BITMAP
1C00
1C00
1C00
1C00
DD80
DD80
DD80
1C00
1C00
1C00
0000
FF80
FF80
FF80
ENDCHAR
STARTCHAR question.case
ENCODING -1
SWIDTH 598 0
DWIDTH 11 0
BBX 9 16 1 0
BITMAP
3E00
5D00
BE80
E580
E380
0580
0A80
0D00
1A00
1C00
1C00
1C00
0000
1C00
1C00
1C00
ENDCHAR
STARTCHAR questiondown.case
ENCODING -1
SWIDTH 598 0
DWIDTH 11 0
BBX 9 16 1 -5
BITMAP
1C00
1C00
1C00
0000
1C00
1C00
2C00
3400
6800
D000
E000
E380
E580
BE80
5D00
3E00
ENDCHAR
STARTCHAR quotedbl.case
ENCODING -1
SWIDTH 464 0
DWIDTH 8 0
BBX 8 5 0 11
BITMAP
D7
D7
D7
D7
D7
ENDCHAR
STARTCHAR quotedblbase.case
ENCODING -1
SWIDTH 464 0
DWIDTH 8 0
BBX 8 5 0 -1
BITMAP
D7
D7
D7
53
53
ENDCHAR
STARTCHAR quotedblleft.case
ENCODING -1
SWIDTH 464 0
DWIDTH 8 0
BBX 8 5 0 8
BITMAP
C6
C6
D7
D7
D7
ENDCHAR
STARTCHAR quotedblright.case
ENCODING -1
SWIDTH 464 0
DWIDTH 8 0
BBX 8 5 0 11
BITMAP
D7
D7
D7
53
53
ENDCHAR
STARTCHAR quoteleft.case
ENCODING -1
SWIDTH 212 0
DWIDTH 4 0
BBX 3 5 0 8
BITMAP
C0
C0
E0
E0
E0
ENDCHAR
STARTCHAR quoteright.case
ENCODING -1
SWIDTH 212 0
DWIDTH 4 0
BBX 3 5 0 11
BITMAP
E0
E0
E0
60
60
ENDCHAR
STARTCHAR quotesinglbase.case
ENCODING -1
SWIDTH 212 0
DWIDTH 4 0
BBX 3 5 0 -1
BITMAP
E0
E0
E0
60
60
ENDCHAR
STARTCHAR quotesingle.case
ENCODING -1
SWIDTH 212 0
DWIDTH 4 0
BBX 3 5 0 11
BITMAP
E0
E0
E0
E0
E0
ENDCHAR
STARTCHAR registered.case
ENCODING -1
SWIDTH 895 0
DWIDTH 16 0
BBX 15 16 1 0
BITMAP
0FC0
37B0
5868
6018
CF8C
CFCC
8CAA
8FC6
8F86
8D4A
CCCC
CCCC
6018
5868
37B0
0FC0
ENDCHAR
STARTCHAR uni030A.case
ENCODING -1
SWIDTH 0 0
DWIDTH 0 0
BBX 4 4 1 17
BITMAP
60
90
90
60
ENDCHAR
STARTCHAR section.case
ENCODING -1
SWIDTH 645 0
DWIDTH 12 0
BBX 10 20 1 -3
BITMAP
1E00
7F80
6EC0
D100
BC00
7300
6E80
5D80
BAC0
E2C0
E740
B880
5F00
2280
1D40
02C0
FF40
BE80
4180
3E00
ENDCHAR
STARTCHAR semicolon.case
ENCODING -1
SWIDTH 338 0
DWIDTH 6 0
BBX 4 12 1 -2
BITMAP
70
70
70
00
00
00
00
70
70
B0
D0
E0
ENDCHAR
STARTCHAR seven.case
ENCODING -1
SWIDTH 505 0
DWIDTH 9 0
BBX 7 16 1 0
BITMAP
FE
FE
00
FE
0E
0E
16
1A
1C
1C
2C
34
38
38
58
70
ENDCHAR
STARTCHAR six.case
ENCODING -1
SWIDTH 558 0
DWIDTH 10 0
BBX 9 16 1 0
BITMAP
3C00
7F00
DB00
A680
A580
A000
BC00
A200
BD00
BA80
A680
A500
A680
DB00
7E00
3C00
ENDCHAR
STARTCHAR slash.case
ENCODING -1
SWIDTH 504 0
DWIDTH 9 0
BBX 9 18 0 -1
BITMAP
0580
0680
0700
0B00
0D00
0E00
0E00
1A00
1C00
1C00
2C00
3400
3800
5800
6800
7000
B000
D000
ENDCHAR
STARTCHAR uni00AD.case
ENCODING -1
SWIDTH 445 0
DWIDTH 8 0
BBX 6 3 1 6
BITMAP
FC
FC
FC
ENDCHAR
STARTCHAR sterling.case
ENCODING -1
SWIDTH 618 0
DWIDTH 11 0
BBX 11 16 0 0
BITMAP
1F00
3FC0
6EC0
7160
7000
6800
FF00
0000
FF00
FF00
2000
5800
2000
FFE0
FFE0
FFE0
ENDCHAR
STARTCHAR three.case
ENCODING -1
SWIDTH 558 0
DWIDTH 10 0
BBX 9 16 1 0
BITMAP
3C00
FF00
DB00
A680
A500
0680
0D00
0200
0D00
0A80
0680
A500
A680
DB00
FE00
3C00
ENDCHAR
STARTCHAR threequarters.case
ENCODING -1
SWIDTH 722 0
DWIDTH 13 0
BBX 11 16 1 0
BITMAP
60A0
F0C0
1140
2180
3280
F300
6500
0600
0AC0
0D40
1580
1980
29E0
31E0
5060
6000
ENDCHAR
STARTCHAR uni00B3.case
ENCODING -1
SWIDTH 332 0
DWIDTH 6 0
BBX 4 7 1 9
BITMAP
60
F0
10
20
30
F0
60
ENDCHAR
STARTCHAR tildecomb.case
ENCODING -1
SWIDTH 0 0
DWIDTH 0 0
BBX 7 3 1 17
BITMAP
62
92
8C
ENDCHAR
STARTCHAR trademark.case
ENCODING -1
SWIDTH 850 0
DWIDTH 15 0
BBX 15 8 0 7
BITMAP
FD8A
FDCA
31BA
31EA
31B6
31A6
3186
3186
ENDCHAR
STARTCHAR two.case
ENCODING -1
SWIDTH 558 0
DWIDTH 10 0
BBX 9 16 1 0
BITMAP
3C00
7E00
DB00
A680
A500
0580
0680
0B00
1600
2A00
3400
6800
9000
FF00
FF00
FF00
ENDCHAR
STARTCHAR uni00B2.case
ENCODING -1
SWIDTH 339 0
DWIDTH 6 0
BBX 4 7 1 9
BITMAP
60
F0
30
50
A0
F0
F0
ENDCHAR
STARTCHAR underscore.case
ENCODING -1
SWIDTH 667 0
DWIDTH 12 0
BBX 10 3 1 0
BITMAP
FFC0
FFC0
FFC0
ENDCHAR
STARTCHAR yen.case
ENCODING -1
SWIDTH 769 0
DWIDTH 14 0
BBX 14 16 0 0
BITMAP
B034
6858
5870
34D0
1D60
16A0
0D40
0B40
0680
0680
1EE0
1EE0
1EE0
0680
0680
0680
ENDCHAR
STARTCHAR zero.case
ENCODING -1
SWIDTH 558 0
DWIDTH 10 0
BBX 9 16 1 0
BITMAP
3C00
7E00
DB00
A680
A500
A580
A580
A580
A580
A580
A580
A500
A680
DB00
7E00
3C00
ENDCHAR
ENDFONT
